
<svg viewBox="0 0 32 32" xmlns="http://www.w3.org/2000/svg">
  <!-- Modern background -->
  <defs>
    <linearGradient id="bgGradient" x1="0%" y1="0%" x2="100%" y2="100%">
      <stop offset="0%" stop-color="#1e1b4b"/>
      <stop offset="100%" stop-color="#312e81"/>
    </linearGradient>
    <linearGradient id="coreRayGradient" x1="0%" y1="100%" x2="0%" y2="0%">
      <stop offset="0%" stop-color="#6366f1" stop-opacity="1"/>
      <stop offset="50%" stop-color="#8b5cf6" stop-opacity="0.9"/>
      <stop offset="100%" stop-color="#a855f7" stop-opacity="0.1"/>
    </linearGradient>
    <linearGradient id="glowRayGradient" x1="0%" y1="100%" x2="0%" y2="0%">
      <stop offset="0%" stop-color="#6366f1" stop-opacity="0.6"/>
      <stop offset="30%" stop-color="#8b5cf6" stop-opacity="0.4"/>
      <stop offset="100%" stop-color="#a855f7" stop-opacity="0"/>
    </linearGradient>
    <linearGradient id="centerGradient" x1="0%" y1="0%" x2="100%" y2="100%">
      <stop offset="0%" stop-color="#4f46e5"/>
      <stop offset="100%" stop-color="#7c3aed"/>
    </linearGradient>
    <radialGradient id="centerGlow" cx="50%" cy="50%" r="50%">
      <stop offset="0%" stop-color="#6366f1" stop-opacity="0.8"/>
      <stop offset="50%" stop-color="#8b5cf6" stop-opacity="0.4"/>
      <stop offset="100%" stop-color="#a855f7" stop-opacity="0"/>
    </radialGradient>
  </defs>
  
  <!-- Background -->
  <rect width="32" height="32" rx="6" fill="url(#bgGradient)"/>
  
  <!-- Outer glow layer - wider, more transparent -->
  <g transform="translate(16,16)">
    <path
      d="M-1.5,-3 L-0.8,-11 L0.8,-11 L1.5,-3 Z"
      fill="url(#glowRayGradient)"
      transform="rotate(0)"
      opacity="0.6"
    />
    <path
      d="M-1.5,-3 L-0.8,-11 L0.8,-11 L1.5,-3 Z"
      fill="url(#glowRayGradient)"
      transform="rotate(60)"
      opacity="0.6"
    />
    <path
      d="M-1.5,-3 L-0.8,-11 L0.8,-11 L1.5,-3 Z"
      fill="url(#glowRayGradient)"
      transform="rotate(120)"
      opacity="0.6"
    />
    <path
      d="M-1.5,-3 L-0.8,-11 L0.8,-11 L1.5,-3 Z"
      fill="url(#glowRayGradient)"
      transform="rotate(180)"
      opacity="0.6"
    />
    <path
      d="M-1.5,-3 L-0.8,-11 L0.8,-11 L1.5,-3 Z"
      fill="url(#glowRayGradient)"
      transform="rotate(240)"
      opacity="0.6"
    />
    <path
      d="M-1.5,-3 L-0.8,-11 L0.8,-11 L1.5,-3 Z"
      fill="url(#glowRayGradient)"
      transform="rotate(300)"
      opacity="0.6"
    />
  </g>
  
  <!-- Core rays - thinner, more opaque -->
  <g transform="translate(16,16)">
    <path
      d="M-0.6,-2.5 L-0.3,-10 L0.3,-10 L0.6,-2.5 Z"
      fill="url(#coreRayGradient)"
      transform="rotate(0)"
    />
    <path
      d="M-0.6,-2.5 L-0.3,-10 L0.3,-10 L0.6,-2.5 Z"
      fill="url(#coreRayGradient)"
      transform="rotate(60)"
    />
    <path
      d="M-0.6,-2.5 L-0.3,-10 L0.3,-10 L0.6,-2.5 Z"
      fill="url(#coreRayGradient)"
      transform="rotate(120)"
    />
    <path
      d="M-0.6,-2.5 L-0.3,-10 L0.3,-10 L0.6,-2.5 Z"
      fill="url(#coreRayGradient)"
      transform="rotate(180)"
    />
    <path
      d="M-0.6,-2.5 L-0.3,-10 L0.3,-10 L0.6,-2.5 Z"
      fill="url(#coreRayGradient)"
      transform="rotate(240)"
    />
    <path
      d="M-0.6,-2.5 L-0.3,-10 L0.3,-10 L0.6,-2.5 Z"
      fill="url(#coreRayGradient)"
      transform="rotate(300)"
    />
  </g>
  
  <!-- Center glow -->
  <circle cx="16" cy="16" r="3" fill="url(#centerGlow)" opacity="0.8" />
  
  <!-- Central light source point -->
  <circle cx="16" cy="16" r="1.5" fill="url(#centerGradient)" />
</svg>
