
<svg viewBox="0 0 48 48" xmlns="http://www.w3.org/2000/svg">
  <!-- Background circle for better visibility -->
  <circle cx="24" cy="24" r="22" fill="#1a1a1a" stroke="none" />
  
  <!-- Connection lines - subtle and flowing -->
  <g stroke="#666666" stroke-width="1" opacity="0.4" stroke-linecap="round" fill="none">
    <path d="M12 16 Q18 12, 24 14" />
    <path d="M24 14 Q30 12, 36 16" />
    <path d="M36 16 Q38 22, 36 28" />
    <path d="M36 28 Q30 34, 24 32" />
    <path d="M24 32 Q18 34, 12 28" />
    <path d="M12 28 Q10 22, 12 16" />
    <path d="M12 16 Q18 20, 24 22" />
    <path d="M36 16 Q30 20, 24 22" />
    <path d="M24 22 Q30 26, 36 28" />
    <path d="M24 22 Q18 26, 12 28" />
  </g>
  
  <!-- Six domain nodes - bright and distinctive -->
  <circle cx="12" cy="16" r="2.5" fill="#8B5FBF" />
  <circle cx="36" cy="16" r="2.5" fill="#E53E3E" />
  <circle cx="36" cy="28" r="2.5" fill="#38A169" />
  <circle cx="24" cy="32" r="2.5" fill="#DD6B20" />
  <circle cx="12" cy="28" r="2.5" fill="#D69E2E" />
  <circle cx="24" cy="14" r="2.5" fill="#3182CE" />
  
  <!-- Central connecting hub -->
  <circle cx="24" cy="22" r="1.5" fill="#ffffff" opacity="0.8" />
</svg>
